<svg id="图层_1" data-name="图层 1" xmlns="http://www.w3.org/2000/svg" viewBox="0 0 46 46"><defs><style>.cls-1{opacity:0.7;}.cls-2,.cls-3{fill:#fff;}.cls-3{fill-rule:evenodd;}</style></defs><title>btn_next</title><g class="cls-1"><path d="M23,45A22,22,0,1,1,45,23,22,22,0,0,1,23,45Z"/><path class="cls-2" d="M23,2A21,21,0,1,1,2,23,21,21,0,0,1,23,2m0-2A23,23,0,1,0,46,23,23,23,0,0,0,23,0h0Z"/></g><polygon class="cls-3" points="18.29 31.59 19.71 33.01 29.71 23.01 29.7 23 29.71 22.99 19.71 12.99 18.29 14.4 26.89 23 18.29 31.59"/></svg>